<?xml version="1.0" encoding="UTF-8" standalone="no"?>
<svg
   viewBox="0 0 448 512"
   version="1.1"
   id="svg4"
   sodipodi:docname="square-envelope-solid.svg"
   inkscape:version="1.1.2 (0a00cf5339, 2022-02-04)"
   xmlns:inkscape="http://www.inkscape.org/namespaces/inkscape"
   xmlns:sodipodi="http://sodipodi.sourceforge.net/DTD/sodipodi-0.dtd"
   xmlns="http://www.w3.org/2000/svg"
   xmlns:svg="http://www.w3.org/2000/svg">
  <defs
     id="defs8" />
  <sodipodi:namedview
     id="namedview6"
     pagecolor="#ffffff"
     bordercolor="#666666"
     borderopacity="1.0"
     inkscape:pageshadow="2"
     inkscape:pageopacity="0.0"
     inkscape:pagecheckerboard="0"
     showgrid="false"
     showguides="false"
     inkscape:zoom="1.158716"
     inkscape:cx="207.98884"
     inkscape:cy="321.90804"
     inkscape:window-width="1457"
     inkscape:window-height="1011"
     inkscape:window-x="463"
     inkscape:window-y="32"
     inkscape:window-maximized="0"
     inkscape:current-layer="layer2" />
  <!--! Font Awesome Pro 6.3.0 by @fontawesome - https://fontawesome.com License - https://fontawesome.com/license (Commercial License) Copyright 2023 Fonticons, Inc. -->
  <g
     inkscape:groupmode="layer"
     id="layer2"
     inkscape:label="Layer 2">
    <path
       style="fill:#6b6361;stroke-width:0.061025;stroke-linejoin:round;fill-opacity:1"
       d="M 52.389486,478.70227 C 24.876991,473.72331 3.5272227,450.43328 0.63442597,422.24371 -0.22015079,413.91607 -0.22555626,97.858151 0.62873869,89.706794 2.203419,74.681797 8.528517,61.435125 19.144596,50.928976 28.791874,41.381596 40.02947,35.500371 52.92023,33.252411 c 7.80831,-1.361655 334.21278,-1.374479 341.98434,-0.01344 26.17564,4.584174 46.60773,24.785613 51.86621,51.280691 1.2663,6.38031 1.2663,336.580368 0,342.960668 -5.25848,26.49508 -25.69057,46.69652 -51.86621,51.2807 -7.44469,1.30379 -335.296718,1.24756 -342.515084,-0.0588 z M 360.32745,367.04652 c 10.59589,-2.75988 18.92165,-10.92642 22.68899,-22.2551 1.04873,-3.15362 1.12723,-7.31007 1.29956,-68.80572 0.10989,-39.21627 -0.04,-65.44935 -0.37392,-65.44935 -0.30653,0 -31.00388,19.66903 -68.21633,43.70895 -37.21245,24.03992 -69.30668,44.61438 -71.32051,45.72102 -6.01315,3.30435 -10.84508,4.61958 -18.31972,4.98653 -7.94791,0.39019 -14.51985,-0.94417 -21.04142,-4.27221 -2.18164,-1.11333 -34.66494,-21.85124 -72.1851,-46.08426 -37.52017,-24.23301 -68.494314,-44.06003 -68.831429,-44.06003 -0.407775,0 -0.550629,21.90785 -0.426772,65.44935 l 0.186175,65.44934 1.356147,4.01065 c 3.473856,10.27351 12.380593,18.93254 22.186522,21.56951 2.827454,0.76034 22.087317,0.89108 136.351437,0.92557 117.59732,0.0355 133.47579,-0.0684 136.64637,-0.89425 z M 229.75924,271.91165 c 3.14346,-1.71539 152.28008,-97.91859 153.42865,-98.97185 0.72761,-0.66723 0.74465,-1.33679 0.10658,-4.18802 -1.87987,-8.40011 -8.33414,-16.99006 -15.69371,-20.88666 -7.85344,-4.15809 3.80026,-3.84605 -143.6389,-3.84605 -146.352259,0 -135.645454,-0.26265 -143.103696,3.51051 -4.482343,2.26764 -11.484153,9.53661 -13.700668,14.22343 -2.142503,4.53032 -3.541417,10.13254 -2.725195,10.9136 0.567899,0.54344 149.596479,96.84517 153.318069,99.07358 4.09658,2.45296 7.73288,2.50487 12.00887,0.17146 z"
       id="path1097" />
    <path
       style="fill:#e9e7da;fill-opacity:1;stroke-width:0.061025;stroke-linejoin:round"
       d="m 219.87175,272.49456 c -1.07483,-0.46739 -6.979,-4.07663 -13.12038,-8.02053 -20.59413,-13.22524 -100.6547,-64.95925 -121.541874,-78.53865 l -20.66893,-13.43752 0.359104,-3.03207 c 0.635504,-5.36584 3.534832,-10.44116 9.101926,-15.93308 5.74358,-5.66602 9.029642,-7.49439 15.267461,-8.49481 6.437318,-1.03243 262.311203,-0.99632 269.378433,0.038 3.52537,0.51596 6.05403,1.31575 8.54351,2.70225 8.00175,4.45653 15.67083,15.23138 15.71913,22.08498 l 0.0219,3.11174 -22.88438,14.84378 c -70.79859,45.92295 -129.75378,83.70279 -132.25216,84.75021 -2.48601,1.04223 -5.41939,1.01472 -7.92377,-0.0743 z"
       id="path1692" />
    <path
       style="fill:#cab9a3;fill-opacity:1;stroke-width:0.0431512;stroke-linejoin:round"
       d="m 92.990863,367.22456 c -5.229335,-0.23583 -6.418093,-0.43026 -8.845999,-1.44686 -8.935632,-3.74147 -15.806877,-11.45092 -19.26447,-21.61448 l -1.0166,-2.98829 v -65.08275 c 0,-42.55563 0.147506,-65.08275 0.426158,-65.08275 0.501901,0 13.554667,8.31063 57.612228,36.68142 86.00678,55.38393 83.97369,54.13049 91.14032,56.19002 4.54711,1.30673 15.75837,1.40664 21.05283,0.18761 7.33138,-1.68802 3.05393,0.91465 81.77154,-49.75502 62.49874,-40.22976 67.31959,-43.30403 67.90622,-43.30403 0.40565,0 0.27935,119.15128 -0.13403,126.43305 -0.29354,5.17101 -0.55454,6.78024 -1.5038,9.27222 -3.29293,8.64451 -10.04274,15.67011 -18.2519,18.99767 -2.2693,0.91986 -4.03387,1.26286 -7.88586,1.53286 -5.77099,0.40451 -254.01096,0.385 -263.006637,-0.0207 z"
       id="path1848" />
  </g>
</svg>
