<?xml version="1.0" encoding="UTF-8" standalone="no"?>
<svg
   viewBox="0 0 448 512"
   version="1.1"
   id="svg4"
   sodipodi:docname="square-instagram.svg"
   inkscape:version="1.1.2 (0a00cf5339, 2022-02-04)"
   xmlns:inkscape="http://www.inkscape.org/namespaces/inkscape"
   xmlns:sodipodi="http://sodipodi.sourceforge.net/DTD/sodipodi-0.dtd"
   xmlns="http://www.w3.org/2000/svg"
   xmlns:svg="http://www.w3.org/2000/svg">
  <defs
     id="defs8" />
  <sodipodi:namedview
     id="namedview6"
     pagecolor="#ffffff"
     bordercolor="#666666"
     borderopacity="1.0"
     inkscape:pageshadow="2"
     inkscape:pageopacity="0.0"
     inkscape:pagecheckerboard="0"
     showgrid="false"
     inkscape:zoom="1"
     inkscape:cx="362.5"
     inkscape:cy="255"
     inkscape:window-width="1920"
     inkscape:window-height="1011"
     inkscape:window-x="0"
     inkscape:window-y="32"
     inkscape:window-maximized="1"
     inkscape:current-layer="layer3" />
  <!--! Font Awesome Pro 6.3.0 by @fontawesome - https://fontawesome.com License - https://fontawesome.com/license (Commercial License) Copyright 2023 Fonticons, Inc. -->
  <g
     inkscape:groupmode="layer"
     id="layer3"
     inkscape:label="Layer 2"
     style="display:inline">
    <path
       style="fill:#d1b661;fill-opacity:1;stroke-width:0.05;stroke-linejoin:round"
       d="m 214.31273,308.25512 c -22.70653,-4.72349 -39.21738,-21.83743 -42.8317,-44.39622 -0.86506,-5.3993 -0.36608,-15.4055 1.0378,-20.81098 C 178.69559,219.26488 199.60392,203 224,203 c 24.38883,0 45.30648,16.29008 51.5701,40.16136 1.64491,6.26891 1.84745,16.52248 0.45936,23.2548 -4.16581,20.20443 -19.00778,35.81102 -39.05955,41.07179 -5.47507,1.43644 -17.48504,1.84309 -22.65718,0.76717 z"
       id="path6458" />
    <path
       style="fill:#c26f76;fill-opacity:1;stroke-width:0.05;stroke-linejoin:round"
       d="m 166,386.46119 c -13.64004,-0.80211 -26.56377,-2.72997 -33.51601,-4.99964 -12.77463,-4.17049 -23.8293,-13.53866 -30.2759,-25.65701 C 97.076684,346.1585 94.783951,334.60075 93.5185,312 92.846657,300.00099 92.843925,212.06672 93.515,200 c 0.886456,-15.93906 2.685573,-28.64114 5.063615,-35.75 4.579265,-13.68917 14.897065,-25.18478 28.322645,-31.55576 7.68295,-3.64588 21.45509,-6.13258 39.77918,-7.18253 11.62812,-0.66628 102.50741,-0.66643 114.13907,-1.9e-4 11.39823,0.65288 23.64907,2.18087 30.19678,3.76632 19.60324,4.74668 34.59693,19.54009 39.50615,38.97846 1.55957,6.17519 2.56036,12.76243 3.56936,23.4937 0.94566,10.05749 0.94627,118.43256 5e-4,128.5 -2.44729,26.05709 -6.49154,37.14898 -17.59255,48.25 -8.6538,8.6538 -18.24739,13.25831 -32.75,15.7186 -13.62811,2.31194 -17.15009,2.43144 -75.25,2.55317 -30.3875,0.0637 -58.5125,-0.0761 -62.5,-0.31058 z m 74.5,-49.9237 c 32.97833,-7.2823 57.04369,-31.44626 64.08586,-64.34844 1.02395,-4.78405 1.16168,-6.76373 1.14375,-16.43905 -0.0175,-9.43981 -0.17564,-11.69597 -1.11502,-15.90684 -7.41676,-33.24673 -31.21103,-57.04099 -64.45775,-64.45776 -4.21088,-0.93937 -6.46704,-1.09752 -15.90684,-1.11501 -9.67533,-0.0179 -11.655,0.1198 -16.43906,1.14375 -32.8639,7.03397 -57.36283,31.5329 -64.3968,64.3968 -1.02395,4.78406 -1.16169,6.76373 -1.14376,16.43906 0.0175,9.4398 0.17565,11.69596 1.11502,15.90684 7.72992,34.6505 33.68665,59.38328 68.3646,65.14099 6.16431,1.02348 22.64575,0.58761 28.75,-0.76034 z M 313.3957,189.4806 c 5.76693,-1.33025 10.64659,-5.16251 13.21401,-10.37768 1.53865,-3.12545 1.64029,-3.65784 1.64029,-8.59241 0,-4.804 -0.12716,-5.5199 -1.46529,-8.24961 -2.79965,-5.71111 -8.4849,-9.88905 -14.61574,-10.74071 -13.85473,-1.92461 -25.24815,11.16295 -21.23114,24.38808 1.0217,3.36372 3.4153,7.18607 5.76817,9.21119 4.53853,3.90632 11.16023,5.63662 16.6897,4.36114 z"
       id="path6497" />
    <path
       style="fill:#8a7b9d;fill-opacity:1;stroke-width:0.05;stroke-linejoin:round"
       d="M 42.736039,479.49659 C 23.299589,477.42231 6.9988755,463.24778 1.6274461,443.75 L 0.25,438.75 V 256 73.25 l 1.3774461,-5 C 6.3614145,51.066138 19.066138,38.361414 36.25,33.627446 L 41.25,32.25 H 224 406.75 l 5,1.377446 c 17.18386,4.733968 29.88858,17.438692 34.62255,34.622554 l 1.37745,5 V 256 438.75 l -1.37745,5 c -4.73397,17.18386 -17.43869,29.88858 -34.62255,34.62255 l -5,1.37745 -180.25,0.0608 C 127.3625,479.8443 44.668717,479.70285 42.736039,479.49659 Z M 290.75,415.05483 c 19.72913,-1.35864 32.41991,-4.34655 45,-10.59477 8.11111,-4.02859 14.37762,-8.58768 21.25,-15.46006 13.99745,-13.99746 21.59578,-30.18542 24.75986,-52.75 1.72794,-12.3228 1.98416,-22.68561 1.98416,-80.25 0,-57.5644 -0.25622,-67.9272 -1.98416,-80.25 -2.83629,-20.22693 -9.49123,-35.752 -20.93231,-48.83221 C 345.48932,109.38211 325.03916,99.99616 296.75,97.508315 273.94253,95.50255 173.46708,95.49798 151.25,97.501715 c -23.52383,2.12157 -40.50003,8.498835 -55.206045,20.738655 -14.055795,11.69865 -23.87459,28.31482 -27.97884,47.3481 -3.095365,14.35461 -3.567185,23.6566 -3.901165,76.91154 -0.39949,63.70197 0.39448,86.5502 3.547955,102.1 6.37357,31.42806 26.433615,54.62588 55.698105,64.41035 12.07401,4.0369 23.87783,5.74293 44.76928,6.47061 16.15917,0.56285 113.10377,0.22582 122.57071,-0.42612 z"
       id="path6536" />
    <path
       style="fill:#e9e7da;fill-opacity:1;stroke-width:0.0353553;stroke-linejoin:round"
       d="m 175.00893,415.40376 c -18.60882,-0.32534 -29.69876,-1.25521 -39.69694,-3.32851 -37.754707,-7.82911 -62.749171,-34.57828 -68.461732,-73.268 -2.018237,-13.669 -2.505175,-28.85345 -2.49646,-77.84847 0.0094,-52.9062 0.475283,-73.05237 1.954855,-84.53564 3.658531,-28.39463 16.418624,-49.92121 37.989597,-64.08933 13.69609,-8.99579 30.62587,-13.813521 53.03301,-15.091677 24.96629,-1.424135 107.23149,-1.425349 132.93607,-0.002 30.92893,1.712685 51.30897,9.857167 67.98176,27.167577 12.21284,12.6799 19.43708,27.84271 22.84788,47.955 2.24984,13.26652 2.63084,28.23538 2.3981,94.21651 -0.11096,31.45668 -0.32879,53.19429 -0.56687,56.56854 -1.94219,27.52591 -8.21707,45.37502 -21.31612,60.6344 -14.57843,16.98275 -32.33858,26.29071 -56.68544,29.7084 -10.11902,1.42046 -14.62701,1.59585 -49.66109,1.93223 -37.97267,0.36458 -58.59253,0.35969 -80.25662,-0.0191 z M 289.47898,386.1253 c 9.89085,-0.81082 19.8312,-2.6216 26.47198,-4.82224 8.86988,-2.93933 17.03237,-8.4075 23.23002,-15.56211 8.56858,-9.89162 12.05317,-19.66627 14.55392,-40.82539 1.0845,-9.17605 1.56383,-70.72661 0.88243,-113.31386 -0.28606,-17.87899 -0.40444,-20.51508 -1.22075,-27.18331 -1.62185,-13.24858 -3.44754,-20.28698 -7.1293,-27.48476 -4.45082,-8.7013 -10.35497,-15.24023 -18.61526,-20.61668 -9.07478,-5.90659 -17.86734,-8.27299 -38.26857,-10.2995 -14.57346,-1.44762 -116.8233,-1.43417 -131.34508,0.0173 -20.4496,2.04393 -29.94821,4.80027 -39.42121,11.43937 -5.14897,3.60863 -11.50302,10.28494 -14.83875,15.59133 -1.52071,2.4191 -3.887673,7.34144 -4.93963,10.27247 -2.852123,7.94674 -4.887943,23.11365 -5.505478,41.01596 -0.437132,12.67243 -0.432307,90.27339 0.0064,103.06081 1.167343,34.02503 5.38915,48.05794 18.355328,61.01145 9.69349,9.68403 18.43253,13.68541 35.38317,16.20103 4.54634,0.67472 14.01109,1.65801 18.56155,1.92836 5.44559,0.32353 119.477,-0.0726 123.83922,-0.43021 z"
       id="path6955" />
    <path
       style="fill:#e9e7da;fill-opacity:1;stroke-width:0.0353553;stroke-linejoin:round"
       d="m 210.54104,336.97854 c -31.85616,-5.86089 -56.00489,-27.46444 -65.37408,-58.48391 -2.43873,-8.07416 -2.50817,-8.69275 -2.50817,-22.3452 0,-14.26279 0.19086,-15.6835 3.43616,-25.57748 9.53429,-29.06737 33.32093,-49.59438 64.44609,-55.61466 1.78363,-0.34499 5.63488,-0.47154 13.78859,-0.45307 10.26083,0.0232 11.65139,0.098 14.94236,0.80315 17.22155,3.69016 32.28152,11.87925 43.7475,23.78836 10.04219,10.43031 16.71718,22.69199 20.95428,38.49215 l 1.27996,4.77297 0.13642,12.09904 c 0.12629,11.20072 0.0807,12.39052 -0.61462,16.0246 -6.03126,31.52443 -28.04455,55.66834 -58.85771,64.55443 -6.81804,1.96623 -9.77114,2.30487 -21.41142,2.4553 -9.0035,0.11635 -10.91332,0.0458 -13.96536,-0.51568 z m 19.16102,-28.3596 c 20.40855,-1.74343 38.30857,-16.25162 44.79095,-36.30365 1.88643,-5.83531 2.43727,-9.54616 2.42592,-16.34264 -0.0159,-9.54734 -1.36423,-15.42505 -5.39326,-23.5113 -5.08567,-10.2069 -13.09667,-18.39298 -22.95754,-23.45926 -6.48636,-3.33253 -11.35635,-4.83684 -18.54651,-5.72888 -4.43619,-0.55038 -11.94083,-0.23546 -16.53988,0.69405 -21.5488,4.35522 -38.72478,22.22884 -41.85179,43.5517 -0.75243,5.13076 -0.56911,15.85209 0.33497,19.59063 2.58722,10.6986 7.01989,18.70566 14.50375,26.19922 7.22984,7.23922 15.34713,11.86835 25.40101,14.48571 4.57525,1.19109 10.39205,1.46001 17.83238,0.82442 z"
       id="path6994" />
    <path
       style="fill:#e9e7da;fill-opacity:1;stroke-width:0.0353553;stroke-linejoin:round"
       d="m 305.47013,189.3066 c -8.51345,-1.83507 -14.53336,-8.94522 -15.09874,-17.83321 -0.54148,-8.51217 5.15661,-16.60987 13.49307,-19.17533 8.8072,-2.71032 18.59407,1.54583 22.71149,9.87687 l 1.34482,2.72105 v 5.67519 5.67519 l -1.16834,2.28488 c -2.39909,4.6918 -5.2884,7.54291 -9.64653,9.51898 -3.9408,1.78685 -7.42796,2.16337 -11.63577,1.25638 z"
       id="path7033" />
  </g>
</svg>
